Coordinates
version=1
nRows=7
nColumns=40
inDegrees=yes

Units are S.I. units (second, meters, Newtons, ...)
Angles are in degrees.

endheader
time	pelvis_tilt	pelvis_list	pelvis_rotation	pelvis_tx	pelvis_ty	pelvis_tz	hip_flexion_r	hip_adduction_r	hip_rotation_r	knee_angle_r	knee_angle_r_beta	ankle_angle_r	subtalar_angle_r	mtp_angle_r	hip_flexion_l	hip_adduction_l	hip_rotation_l	knee_angle_l	knee_angle_l_beta	ankle_angle_l	subtalar_angle_l	mtp_angle_l	lumbar_extension	lumbar_bending	lumbar_rotation	arm_flex_r	arm_add_r	arm_rot_r	elbow_flex_r	pro_sup_r	wrist_flex_r	wrist_dev_r	arm_flex_l	arm_add_l	arm_rot_l	elbow_flex_l	pro_sup_l	wrist_flex_l	wrist_dev_l
     19.60500000	     -6.52141265	     -3.73988660	     -9.40157734	      0.99252582	      0.92436187	      0.50922468	     20.83258388	      2.54401421	     -6.67643430	     19.62960386	     19.62960386	      7.13373245	      1.48334032	     -5.35050098	      4.06982263	    -10.08456450	    -12.89191251	     25.45979194	     25.45979194	     17.18657543	    -11.88757576	      0.31403360	     -8.82273935	      7.20677406	      1.29340214	     -9.11789847	    -14.91918789	    -14.94901858	     31.03397793	     46.23681753	      0.00000000	      0.00000000	     32.78969454	    -19.34834633	    -12.35490452	     71.43676936	     48.28390322	      0.00000000	      0.00000000
     19.62371429	     -6.44936046	     -3.83231829	     -8.88884703	      0.99251180	      0.92493868	      0.51394838	     20.18052914	      2.78589812	     -7.12760045	     19.45175936	     19.45175936	      7.63578735	      1.53836074	     -5.29470176	      5.26493541	    -10.82400823	    -11.93535520	     28.24023809	     28.24023809	     16.12263319	    -13.02246326	     -0.26030939	     -8.91828563	      7.29471682	      1.24968696	     -8.06004091	    -15.30455909	    -14.77056000	     31.81128871	     46.20065462	      0.00000000	      0.00000000	     32.01734627	    -18.79858607	    -11.88166531	     70.53438040	     48.22323129	      0.00000000	      0.00000000
     19.64242857	     -6.37757272	     -3.91864840	     -8.32418890	      0.99227133	      0.92533920	      0.51847773	     19.60724238	      3.00246744	     -7.61736238	     19.39073562	     19.39073562	      8.22716428	      1.57852479	     -4.96622676	      6.71655364	    -11.50464355	    -10.72380836	     31.28798280	     31.28798280	     14.36165505	    -14.73624158	     -1.77956000	     -8.98488165	      7.35207766	      1.47909634	     -7.52484136	    -15.86752074	    -13.50011048	     33.43981183	     46.05196631	      0.00000000	      0.00000000	     31.65383351	    -18.06128508	    -10.66759021	     68.53267409	     48.06710814	      0.00000000	      0.00000000
     19.66114286	     -6.25441279	     -4.07600528	     -7.71385139	      0.99189578	      0.92562298	      0.52291387	     18.97574688	      3.30363526	     -8.07409202	     19.29723071	     19.29723071	      8.64119891	      1.40538234	     -5.05632856	      8.46111420	    -12.30055531	     -9.52414616	     34.92167266	     34.92167266	     13.15700595	    -15.91092629	     -1.93076979	     -9.15235088	      7.43141933	      1.38690978	     -6.21054358	    -16.17054330	    -13.44683378	     34.05393173	     46.03428625	      0.00000000	      0.00000000	     30.58134369	    -17.34629392	    -10.25266449	     67.71156115	     48.01183651	      0.00000000	      0.00000000
     19.67985714	     -6.10784441	     -4.23558067	     -7.09375352	      0.99135666	      0.92572235	      0.52713077	     18.42702843	      3.59951275	     -8.50105956	     19.36181401	     19.36181401	      9.05561613	      1.09080240	     -5.15023130	     10.42157266	    -13.02086910	     -8.19984058	     38.84854502	     38.84854502	     11.88019674	    -17.11135836	     -1.84357009	     -9.32435856	      7.49431134	      1.24974518	     -4.75551861	    -16.42787659	    -13.34882586	     34.72732094	     46.01237445	      0.00000000	      0.00000000	     29.44423416	    -16.62533943	     -9.75059994	     66.61158078	     47.94533692	      0.00000000	      0.00000000
     19.69857143	     -6.02835102	     -4.27775322	     -6.44140239	      0.99061147	      0.92552656	      0.53108986	     18.10599868	      3.79681795	     -8.69298869	     19.64511103	     19.64511103	      9.55567190	      0.36669349	     -5.03192859	     12.83002740	    -13.44920066	     -6.58257470	     43.32938026	     43.32938026	     12.05158438	    -17.75023671	      2.13759008	     -9.29461023	      7.43177356	      1.24742328	     -3.51741165	    -16.82934277	    -12.08562571	     35.66736472	     45.91004676	      0.00000000	      0.00000000	     28.76060724	    -15.93057877	     -8.37248662	     63.63497776	     47.76526255	      0.00000000	      0.00000000
     19.71728571	     -5.69834395	     -4.50411806	     -5.79766789	      0.98997577	      0.92539635	      0.53500422	     17.52338630	      4.12692229	     -9.11787071	     19.99006497	     19.99006497	     10.03378783	     -0.04028175	     -5.16415897	     14.87217575	    -14.10031639	     -5.30232859	     47.49992807	     47.49992807	     10.85652573	    -18.43452382	      2.29881330	     -9.71109456	      7.48180687	      1.25680627	     -1.89185629	    -17.03638998	    -12.05126236	     36.39616131	     45.89139693	      0.00000000	      0.00000000	     27.38720240	    -14.99077637	     -7.88027189	     62.67813665	     47.69981870	      0.00000000	      0.00000000
